<svg id="SvgjsSvg1006" width="1294.15625" height="1234" xmlns="http://www.w3.org/2000/svg" version="1.1" xmlns:xlink="http://www.w3.org/1999/xlink" xmlns:svgjs="http://svgjs.com/svgjs"><defs id="SvgjsDefs1007"><marker id="SvgjsMarker1028" markerWidth="16" markerHeight="12" refX="16" refY="6" viewBox="0 0 16 12" orient="auto" markerUnits="userSpaceOnUse"><path id="SvgjsPath1029" d="M0,2 L14,6 L0,11 L0,2" fill="#323232" stroke="#323232" stroke-width="2"></path></marker><marker id="SvgjsMarker1044" markerWidth="16" markerHeight="12" refX="16" refY="6" viewBox="0 0 16 12" orient="auto" markerUnits="userSpaceOnUse"><path id="SvgjsPath1045" d="M0,2 L14,6 L0,11 L0,2" fill="#323232" stroke="#323232" stroke-width="2"></path></marker><marker id="SvgjsMarker1048" markerWidth="16" markerHeight="12" refX="16" refY="6" viewBox="0 0 16 12" orient="auto" markerUnits="userSpaceOnUse"><path id="SvgjsPath1049" d="M0,2 L14,6 L0,11 L0,2" fill="#323232" stroke="#323232" stroke-width="2"></path></marker><marker id="SvgjsMarker1052" markerWidth="16" markerHeight="12" refX="16" refY="6" viewBox="0 0 16 12" orient="auto" markerUnits="userSpaceOnUse"><path id="SvgjsPath1053" d="M0,2 L14,6 L0,11 L0,2" fill="#323232" stroke="#323232" stroke-width="2"></path></marker><marker id="SvgjsMarker1056" markerWidth="16" markerHeight="12" refX="16" refY="6" viewBox="0 0 16 12" orient="auto" markerUnits="userSpaceOnUse"><path id="SvgjsPath1057" d="M0,2 L14,6 L0,11 L0,2" fill="#323232" stroke="#323232" stroke-width="2"></path></marker><marker id="SvgjsMarker1084" markerWidth="16" markerHeight="12" refX="16" refY="6" viewBox="0 0 16 12" orient="auto" markerUnits="userSpaceOnUse"><path id="SvgjsPath1085" d="M0,2 L14,6 L0,11 L0,2" fill="#323232" stroke="#323232" stroke-width="2"></path></marker><marker id="SvgjsMarker1088" markerWidth="16" markerHeight="12" refX="16" refY="6" viewBox="0 0 16 12" orient="auto" markerUnits="userSpaceOnUse"><path id="SvgjsPath1089" d="M0,2 L14,6 L0,11 L0,2" fill="#323232" stroke="#323232" stroke-width="2"></path></marker><marker id="SvgjsMarker1092" markerWidth="16" markerHeight="12" refX="16" refY="6" viewBox="0 0 16 12" orient="auto" markerUnits="userSpaceOnUse"><path id="SvgjsPath1093" d="M0,2 L14,6 L0,11 L0,2" fill="#323232" stroke="#323232" stroke-width="2"></path></marker><marker id="SvgjsMarker1102" markerWidth="16" markerHeight="12" refX="16" refY="6" viewBox="0 0 16 12" orient="auto" markerUnits="userSpaceOnUse"><path id="SvgjsPath1103" d="M0,2 L14,6 L0,11 L0,2" fill="#323232" stroke="#323232" stroke-width="2"></path></marker><marker id="SvgjsMarker1106" markerWidth="16" markerHeight="12" refX="16" refY="6" viewBox="0 0 16 12" orient="auto" markerUnits="userSpaceOnUse"><path id="SvgjsPath1107" d="M0,2 L14,6 L0,11 L0,2" fill="#323232" stroke="#323232" stroke-width="2"></path></marker><marker id="SvgjsMarker1117" markerWidth="16" markerHeight="12" refX="16" refY="6" viewBox="0 0 16 12" orient="auto" markerUnits="userSpaceOnUse"><path id="SvgjsPath1118" d="M0,2 L14,6 L0,11 L0,2" fill="#323232" stroke="#323232" stroke-width="2"></path></marker><marker id="SvgjsMarker1133" markerWidth="16" markerHeight="12" refX="16" refY="6" viewBox="0 0 16 12" orient="auto" markerUnits="userSpaceOnUse"><path id="SvgjsPath1134" d="M0,2 L14,6 L0,11 L0,2" fill="#323232" stroke="#323232" stroke-width="2"></path></marker><marker id="SvgjsMarker1137" markerWidth="16" markerHeight="12" refX="16" refY="6" viewBox="0 0 16 12" orient="auto" markerUnits="userSpaceOnUse"><path id="SvgjsPath1138" d="M0,2 L14,6 L0,11 L0,2" fill="#323232" stroke="#323232" stroke-width="2"></path></marker><marker id="SvgjsMarker1153" markerWidth="16" markerHeight="12" refX="16" refY="6" viewBox="0 0 16 12" orient="auto" markerUnits="userSpaceOnUse"><path id="SvgjsPath1154" d="M0,2 L14,6 L0,11 L0,2" fill="#323232" stroke="#323232" stroke-width="2"></path></marker><marker id="SvgjsMarker1157" markerWidth="16" markerHeight="12" refX="16" refY="6" viewBox="0 0 16 12" orient="auto" markerUnits="userSpaceOnUse"><path id="SvgjsPath1158" d="M0,2 L14,6 L0,11 L0,2" fill="#323232" stroke="#323232" stroke-width="2"></path></marker><marker id="SvgjsMarker1167" markerWidth="16" markerHeight="12" refX="16" refY="6" viewBox="0 0 16 12" orient="auto" markerUnits="userSpaceOnUse"><path id="SvgjsPath1168" d="M0,2 L14,6 L0,11 L0,2" fill="#323232" stroke="#323232" stroke-width="2"></path></marker><marker id="SvgjsMarker1171" markerWidth="16" markerHeight="12" refX="16" refY="6" viewBox="0 0 16 12" orient="auto" markerUnits="userSpaceOnUse"><path id="SvgjsPath1172" d="M0,2 L14,6 L0,11 L0,2" fill="#323232" stroke="#323232" stroke-width="2"></path></marker><marker id="SvgjsMarker1181" markerWidth="16" markerHeight="12" refX="16" refY="6" viewBox="0 0 16 12" orient="auto" markerUnits="userSpaceOnUse"><path id="SvgjsPath1182" d="M0,2 L14,6 L0,11 L0,2" fill="#323232" stroke="#323232" stroke-width="2"></path></marker><marker id="SvgjsMarker1191" markerWidth="16" markerHeight="12" refX="16" refY="6" viewBox="0 0 16 12" orient="auto" markerUnits="userSpaceOnUse"><path id="SvgjsPath1192" d="M0,2 L14,6 L0,11 L0,2" fill="#323232" stroke="#323232" stroke-width="2"></path></marker><marker id="SvgjsMarker1207" markerWidth="16" markerHeight="12" refX="16" refY="6" viewBox="0 0 16 12" orient="auto" markerUnits="userSpaceOnUse"><path id="SvgjsPath1208" d="M0,2 L14,6 L0,11 L0,2" fill="#323232" stroke="#323232" stroke-width="2"></path></marker><marker id="SvgjsMarker1211" markerWidth="16" markerHeight="12" refX="16" refY="6" viewBox="0 0 16 12" orient="auto" markerUnits="userSpaceOnUse"><path id="SvgjsPath1212" d="M0,2 L14,6 L0,11 L0,2" fill="#323232" stroke="#323232" stroke-width="2"></path></marker><marker id="SvgjsMarker1239" markerWidth="16" markerHeight="12" refX="16" refY="6" viewBox="0 0 16 12" orient="auto" markerUnits="userSpaceOnUse"><path id="SvgjsPath1240" d="M0,2 L14,6 L0,11 L0,2" fill="#323232" stroke="#323232" stroke-width="2"></path></marker><marker id="SvgjsMarker1243" markerWidth="16" markerHeight="12" refX="16" refY="6" viewBox="0 0 16 12" orient="auto" markerUnits="userSpaceOnUse"><path id="SvgjsPath1244" d="M0,2 L14,6 L0,11 L0,2" fill="#323232" stroke="#323232" stroke-width="2"></path></marker><marker id="SvgjsMarker1247" markerWidth="16" markerHeight="12" refX="16" refY="6" viewBox="0 0 16 12" orient="auto" markerUnits="userSpaceOnUse"><path id="SvgjsPath1248" d="M0,2 L14,6 L0,11 L0,2" fill="#323232" stroke="#323232" stroke-width="2"></path></marker><marker id="SvgjsMarker1257" markerWidth="16" markerHeight="12" refX="16" refY="6" viewBox="0 0 16 12" orient="auto" markerUnits="userSpaceOnUse"><path id="SvgjsPath1258" d="M0,2 L14,6 L0,11 L0,2" fill="#323232" stroke="#323232" stroke-width="2"></path></marker><marker id="SvgjsMarker1267" markerWidth="16" markerHeight="12" refX="16" refY="6" viewBox="0 0 16 12" orient="auto" markerUnits="userSpaceOnUse"><path id="SvgjsPath1268" d="M0,2 L14,6 L0,11 L0,2" fill="#323232" stroke="#323232" stroke-width="2"></path></marker><marker id="SvgjsMarker1271" markerWidth="16" markerHeight="12" refX="16" refY="6" viewBox="0 0 16 12" orient="auto" markerUnits="userSpaceOnUse"><path id="SvgjsPath1272" d="M0,2 L14,6 L0,11 L0,2" fill="#323232" stroke="#323232" stroke-width="2"></path></marker><marker id="SvgjsMarker1275" markerWidth="16" markerHeight="12" refX="16" refY="6" viewBox="0 0 16 12" orient="auto" markerUnits="userSpaceOnUse"><path id="SvgjsPath1276" d="M0,2 L14,6 L0,11 L0,2" fill="#323232" stroke="#323232" stroke-width="2"></path></marker><marker id="SvgjsMarker1279" markerWidth="16" markerHeight="12" refX="16" refY="6" viewBox="0 0 16 12" orient="auto" markerUnits="userSpaceOnUse"><path id="SvgjsPath1280" d="M0,2 L14,6 L0,11 L0,2" fill="#323232" stroke="#323232" stroke-width="2"></path></marker><marker id="SvgjsMarker1283" markerWidth="16" markerHeight="12" refX="16" refY="6" viewBox="0 0 16 12" orient="auto" markerUnits="userSpaceOnUse"><path id="SvgjsPath1284" d="M0,2 L14,6 L0,11 L0,2" fill="#323232" stroke="#323232" stroke-width="2"></path></marker><marker id="SvgjsMarker1287" markerWidth="16" markerHeight="12" refX="16" refY="6" viewBox="0 0 16 12" orient="auto" markerUnits="userSpaceOnUse"><path id="SvgjsPath1288" d="M0,2 L14,6 L0,11 L0,2" fill="#323232" stroke="#323232" stroke-width="2"></path></marker><marker id="SvgjsMarker1291" markerWidth="16" markerHeight="12" refX="16" refY="6" viewBox="0 0 16 12" orient="auto" markerUnits="userSpaceOnUse"><path id="SvgjsPath1292" d="M0,2 L14,6 L0,11 L0,2" fill="#323232" stroke="#323232" stroke-width="2"></path></marker><marker id="SvgjsMarker1295" markerWidth="16" markerHeight="12" refX="16" refY="6" viewBox="0 0 16 12" orient="auto" markerUnits="userSpaceOnUse"><path id="SvgjsPath1296" d="M0,2 L14,6 L0,11 L0,2" fill="#323232" stroke="#323232" stroke-width="2"></path></marker><marker id="SvgjsMarker1299" markerWidth="16" markerHeight="12" refX="16" refY="6" viewBox="0 0 16 12" orient="auto" markerUnits="userSpaceOnUse"><path id="SvgjsPath1300" d="M0,2 L14,6 L0,11 L0,2" fill="#323232" stroke="#323232" stroke-width="2"></path></marker></defs><g id="SvgjsG1008" transform="translate(32.15625,25)"><path id="SvgjsPath1009" d="M 0 0L 1237 0L 1237 58L 0 58Z" stroke="rgba(50,50,50,1)" stroke-width="2" fill-opacity="1" fill="#ffffff"></path><g id="SvgjsG1010"><text id="SvgjsText1011" font-family="微软雅黑" text-anchor="middle" font-size="37px" width="193" fill="#323232" font-weight="400" align="middle" anchor="middle" family="微软雅黑" size="37px" weight="400" font-style="" opacity="1" y="0.4500000000000002" transform="rotate(0)"><tspan id="SvgjsTspan1012" dy="46" x="618.5"><tspan id="SvgjsTspan1013" style="text-decoration:;font-weight: bold;">打开“识相”</tspan></tspan></text></g></g><g id="SvgjsG1014" transform="translate(588.4571095458261,148.96428571428572)"><path id="SvgjsPath1015" d="M 0 0L 124.356166294643 0L 124.356166294643 63.74999999999994L 0 63.74999999999994Z" stroke="rgba(50,50,50,1)" stroke-width="2" fill-opacity="1" fill="#ffffff"></path><g id="SvgjsG1016"><text id="SvgjsText1017" font-family="微软雅黑" text-anchor="middle" font-size="13px" width="91" fill="#323232" font-weight="400" align="middle" anchor="middle" family="微软雅黑" size="13px" weight="400" font-style="" opacity="1" y="21.924999999999972" transform="rotate(0)"><tspan id="SvgjsTspan1018" dy="16" x="62.5"><tspan id="SvgjsTspan1019" style="text-decoration:;">看到最新的照片</tspan></tspan></text></g></g><g id="SvgjsG1020" transform="translate(238.99442350680704,316.70238095238096)"><path id="SvgjsPath1021" d="M 0 39.91071428571425L 63.32671750540129 0L 126.65343501080258 39.91071428571425L 63.32671750540129 79.8214285714285Z" stroke="rgba(50,50,50,1)" stroke-width="2" fill-opacity="1" fill="#ffffff"></path><g id="SvgjsG1022"><text id="SvgjsText1023" font-family="微软雅黑" text-anchor="middle" font-size="13px" width="91" fill="#323232" font-weight="400" align="middle" anchor="middle" family="微软雅黑" size="13px" weight="400" font-style="" opacity="1" y="30.35982142857139" transform="rotate(0)"><tspan id="SvgjsTspan1024" dy="16" x="63.5"><tspan id="SvgjsTspan1025" style="text-decoration:;">用户使用何功能</tspan></tspan></text></g></g><g id="SvgjsG1026"><path id="SvgjsPath1027" d="M650.6351926931477 212.71428571428567L650.6351926931477 264.7083333333333L302.3211410122083 264.7083333333333L302.3211410122083 316.70238095238096" stroke="#323232" stroke-width="2" fill="none" marker-end="url(#SvgjsMarker1028)"></path></g><g id="SvgjsG1030" transform="translate(25.01339285714272,449.14285714285717)"><path id="SvgjsPath1031" d="M 0 0L 100 0L 100 70L 0 70Z" stroke="rgba(50,50,50,1)" stroke-width="2" fill-opacity="1" fill="#ffffff"></path><g id="SvgjsG1032"><text id="SvgjsText1033" font-family="微软雅黑" text-anchor="middle" font-size="13px" width="78" fill="#323232" font-weight="400" align="middle" anchor="middle" family="微软雅黑" size="13px" weight="400" font-style="" opacity="1" y="25.05" transform="rotate(0)"><tspan id="SvgjsTspan1034" dy="16" x="50"><tspan id="SvgjsTspan1035" style="text-decoration:;">查看照片分类</tspan></tspan></text></g></g><g id="SvgjsG1036" transform="translate(576.1562499999995,453.42857142857144)"><path id="SvgjsPath1037" d="M 0 0L 100 0L 100 70L 0 70Z" stroke="rgba(50,50,50,1)" stroke-width="2" fill-opacity="1" fill="#ffffff"></path><g id="SvgjsG1038"><text id="SvgjsText1039" font-family="微软雅黑" text-anchor="middle" font-size="13px" width="52" fill="#323232" font-weight="400" align="middle" anchor="middle" family="微软雅黑" size="13px" weight="400" font-style="" opacity="1" y="25.05" transform="rotate(0)"><tspan id="SvgjsTspan1040" dy="16" x="50"><tspan id="SvgjsTspan1041" style="text-decoration:;">照片美化</tspan></tspan></text></g></g><g id="SvgjsG1042"><path id="SvgjsPath1043" d="M365.64785851760973 356.61309523809524L626.1562499999995 356.61309523809524L626.1562499999995 453.42857142857144" stroke="#323232" stroke-width="2" fill="none" marker-end="url(#SvgjsMarker1044)"></path></g><g id="SvgjsG1046"><path id="SvgjsPath1047" d="M238.99442350680704 356.61309523809524L75.01339285714272 356.61309523809524L75.01339285714272 449.14285714285717" stroke="#323232" stroke-width="2" fill="none" marker-end="url(#SvgjsMarker1048)"></path></g><g id="SvgjsG1050"><path id="SvgjsPath1051" d="M302.3211410122083 396.52380952380946L302.3211410122083 422.4761904761905L302.32114101220833 422.4761904761905L302.32114101220833 448.42857142857144" stroke="#323232" stroke-width="2" fill="none" marker-end="url(#SvgjsMarker1052)"></path></g><g id="SvgjsG1054"><path id="SvgjsPath1055" d="M650.6351926931477 212.71428571428567L650.6351926931477 264.7083333333333L1061.15625 264.7083333333333L1061.15625 316.70238095238096" stroke="#323232" stroke-width="2" fill="none" marker-end="url(#SvgjsMarker1056)"></path></g><g id="SvgjsG1058" transform="translate(25.01339285714272,583)"><path id="SvgjsPath1059" d="M 0 0L 100 0L 100 70L 0 70Z" stroke="rgba(50,50,50,1)" stroke-width="2" fill-opacity="1" fill="#ffffff"></path><g id="SvgjsG1060"><text id="SvgjsText1061" font-family="微软雅黑" text-anchor="middle" font-size="13px" width="65" fill="#323232" font-weight="400" align="middle" anchor="middle" family="微软雅黑" size="13px" weight="400" font-style="" opacity="1" y="25.05" transform="rotate(0)"><tspan id="SvgjsTspan1062" dy="16" x="50"><tspan id="SvgjsTspan1063" style="text-decoration:;">查看各分类</tspan></tspan></text></g></g><g id="SvgjsG1064" transform="translate(172.15625,583)"><path id="SvgjsPath1065" d="M 0 0L 100 0L 100 70L 0 70Z" stroke="rgba(50,50,50,1)" stroke-width="2" fill-opacity="1" fill="#ffffff"></path><g id="SvgjsG1066"><text id="SvgjsText1067" font-family="微软雅黑" text-anchor="middle" font-size="13px" width="52" fill="#323232" font-weight="400" align="middle" anchor="middle" family="微软雅黑" size="13px" weight="400" font-style="" opacity="1" y="25.05" transform="rotate(0)"><tspan id="SvgjsTspan1068" dy="16" x="50"><tspan id="SvgjsTspan1069" style="text-decoration:;">调用相机</tspan></tspan></text></g></g><g id="SvgjsG1070" transform="translate(242.32114101220833,448.42857142857144)"><path id="SvgjsPath1071" d="M 0 40L 60 0L 120 40L 60 80Z" stroke="rgba(50,50,50,1)" stroke-width="2" fill-opacity="1" fill="#ffffff"></path><g id="SvgjsG1072"><text id="SvgjsText1073" font-family="微软雅黑" text-anchor="middle" font-size="13px" width="52" fill="#323232" font-weight="400" align="middle" anchor="middle" family="微软雅黑" size="13px" weight="400" font-style="" opacity="1" y="30.45" transform="rotate(0)"><tspan id="SvgjsTspan1074" dy="16" x="60"><tspan id="SvgjsTspan1075" style="text-decoration:;">文档扫描</tspan></tspan></text></g></g><g id="SvgjsG1076" transform="translate(333.15625,583)"><path id="SvgjsPath1077" d="M 0 0L 100 0L 100 70L 0 70Z" stroke="rgba(50,50,50,1)" stroke-width="2" fill-opacity="1" fill="#ffffff"></path><g id="SvgjsG1078"><text id="SvgjsText1079" font-family="微软雅黑" text-anchor="middle" font-size="13px" width="52" fill="#323232" font-weight="400" align="middle" anchor="middle" family="微软雅黑" size="13px" weight="400" font-style="" opacity="1" y="25.05" transform="rotate(0)"><tspan id="SvgjsTspan1080" dy="16" x="50"><tspan id="SvgjsTspan1081" style="text-decoration:;">选择照片</tspan></tspan></text></g></g><g id="SvgjsG1082"><path id="SvgjsPath1083" d="M302.32114101220833 528.4285714285714L302.32114101220833 555.7142857142858L222.15625 555.7142857142858L222.15625 583" stroke="#323232" stroke-width="2" fill="none" marker-end="url(#SvgjsMarker1084)"></path></g><g id="SvgjsG1086"><path id="SvgjsPath1087" d="M302.32114101220833 528.4285714285714L302.32114101220833 555.7142857142858L395.15625 555.7142857142858L395.15625 583" stroke="#323232" stroke-width="2" fill="none" marker-end="url(#SvgjsMarker1088)"></path></g><g id="SvgjsG1090"><path id="SvgjsPath1091" d="M75.01339285714272 519.1428571428571L75.01339285714272 551.0714285714286L75.01339285714272 551.0714285714286L75.01339285714272 583" stroke="#323232" stroke-width="2" fill="none" marker-end="url(#SvgjsMarker1092)"></path></g><g id="SvgjsG1094" transform="translate(172.15625,718)"><path id="SvgjsPath1095" d="M 0 0L 263.16489101220833 0L 263.16489101220833 42L 0 42Z" stroke="rgba(50,50,50,1)" stroke-width="2" fill-opacity="1" fill="#ffffff"></path><g id="SvgjsG1096"><text id="SvgjsText1097" font-family="微软雅黑" text-anchor="middle" font-size="13px" width="111" fill="#323232" font-weight="400" align="middle" anchor="middle" family="微软雅黑" size="13px" weight="400" font-style="" opacity="1" y="11.05" transform="rotate(0)"><tspan id="SvgjsTspan1098" dy="16" x="132"><tspan id="SvgjsTspan1099" style="text-decoration:;">确定，软件调用API</tspan></tspan></text></g></g><g id="SvgjsG1100"><path id="SvgjsPath1101" d="M222.15625 653L222.15625 685.5L303.73869550610414 685.5L303.73869550610414 718" stroke="#323232" stroke-width="2" fill="none" marker-end="url(#SvgjsMarker1102)"></path></g><g id="SvgjsG1104"><path id="SvgjsPath1105" d="M383.15625 653L383.15625 685.5L303.73869550610414 685.5L303.73869550610414 718" stroke="#323232" stroke-width="2" fill="none" marker-end="url(#SvgjsMarker1106)"></path></g><g id="SvgjsG1108" transform="translate(172.15625,800)"><path id="SvgjsPath1109" d="M 0 0L 263.1648910122083 0L 263.1648910122083 53L 0 53Z" stroke="rgba(50,50,50,1)" stroke-width="2" fill-opacity="1" fill="#ffffff"></path><g id="SvgjsG1110"><text id="SvgjsText1111" font-family="微软雅黑" text-anchor="middle" font-size="13px" width="117" fill="#323232" font-weight="400" align="middle" anchor="middle" family="微软雅黑" size="13px" weight="400" font-style="" opacity="1" y="16.55" transform="rotate(0)"><tspan id="SvgjsTspan1112" dy="16" x="132"><tspan id="SvgjsTspan1113" style="text-decoration:;">返回识别</tspan><tspan id="SvgjsTspan1114" style="text-decoration:;font-size: inherit;">结果文字档</tspan></tspan></text></g></g><g id="SvgjsG1115"><path id="SvgjsPath1116" d="M303.73869550610414 760L303.73869550610414 780L303.73869550610414 780L303.73869550610414 800" stroke="#323232" stroke-width="2" fill="none" marker-end="url(#SvgjsMarker1117)"></path></g><g id="SvgjsG1119" transform="translate(172.15625,892)"><path id="SvgjsPath1120" d="M 0 0L 100 0L 100 70L 0 70Z" stroke="rgba(50,50,50,1)" stroke-width="2" fill-opacity="1" fill="#ffffff"></path><g id="SvgjsG1121"><text id="SvgjsText1122" font-family="微软雅黑" text-anchor="middle" font-size="13px" width="52" fill="#323232" font-weight="400" align="middle" anchor="middle" family="微软雅黑" size="13px" weight="400" font-style="" opacity="1" y="25.05" transform="rotate(0)"><tspan id="SvgjsTspan1123" dy="16" x="50"><tspan id="SvgjsTspan1124" style="text-decoration:;">复制文字</tspan></tspan></text></g></g><g id="SvgjsG1125" transform="translate(335.3211410122083,892)"><path id="SvgjsPath1126" d="M 0 0L 100 0L 100 70L 0 70Z" stroke="rgba(50,50,50,1)" stroke-width="2" fill-opacity="1" fill="#ffffff"></path><g id="SvgjsG1127"><text id="SvgjsText1128" font-family="微软雅黑" text-anchor="middle" font-size="13px" width="26" fill="#323232" font-weight="400" align="middle" anchor="middle" family="微软雅黑" size="13px" weight="400" font-style="" opacity="1" y="25.05" transform="rotate(0)"><tspan id="SvgjsTspan1129" dy="16" x="50"><tspan id="SvgjsTspan1130" style="text-decoration:;">分享</tspan></tspan></text></g></g><g id="SvgjsG1131"><path id="SvgjsPath1132" d="M303.73869550610414 853L303.73869550610414 872.5L222.15625 872.5L222.15625 892" stroke="#323232" stroke-width="2" fill="none" marker-end="url(#SvgjsMarker1133)"></path></g><g id="SvgjsG1135"><path id="SvgjsPath1136" d="M303.73869550610414 853L303.73869550610414 872.5L385.3211410122083 872.5L385.3211410122083 892" stroke="#323232" stroke-width="2" fill="none" marker-end="url(#SvgjsMarker1137)"></path></g><g id="SvgjsG1139" transform="translate(494.15625,583)"><path id="SvgjsPath1140" d="M 0 0L 100 0L 100 70L 0 70Z" stroke="rgba(50,50,50,1)" stroke-width="2" fill-opacity="1" fill="#ffffff"></path><g id="SvgjsG1141"><text id="SvgjsText1142" font-family="微软雅黑" text-anchor="middle" font-size="13px" width="52" fill="#323232" font-weight="400" align="middle" anchor="middle" family="微软雅黑" size="13px" weight="400" font-style="" opacity="1" y="25.05" transform="rotate(0)"><tspan id="SvgjsTspan1143" dy="16" x="50"><tspan id="SvgjsTspan1144" style="text-decoration:;">调用相机</tspan></tspan></text></g></g><g id="SvgjsG1145" transform="translate(667.15625,583)"><path id="SvgjsPath1146" d="M 0 0L 100 0L 100 70L 0 70Z" stroke="rgba(50,50,50,1)" stroke-width="2" fill-opacity="1" fill="#ffffff"></path><g id="SvgjsG1147"><text id="SvgjsText1148" font-family="微软雅黑" text-anchor="middle" font-size="13px" width="52" fill="#323232" font-weight="400" align="middle" anchor="middle" family="微软雅黑" size="13px" weight="400" font-style="" opacity="1" y="25.05" transform="rotate(0)"><tspan id="SvgjsTspan1149" dy="16" x="50"><tspan id="SvgjsTspan1150" style="text-decoration:;">选择照片</tspan></tspan></text></g></g><g id="SvgjsG1151"><path id="SvgjsPath1152" d="M626.1562499999995 523.4285714285714L626.1562499999995 553.2142857142858L717.15625 553.2142857142858L717.15625 583" stroke="#323232" stroke-width="2" fill="none" marker-end="url(#SvgjsMarker1153)"></path></g><g id="SvgjsG1155"><path id="SvgjsPath1156" d="M626.1562499999995 523.4285714285714L626.1562499999995 553.2142857142858L544.15625 553.2142857142858L544.15625 583" stroke="#323232" stroke-width="2" fill="none" marker-end="url(#SvgjsMarker1157)"></path></g><g id="SvgjsG1159" transform="translate(494.15625,718)"><path id="SvgjsPath1160" d="M 0 0L 273 0L 273 42L 0 42Z" stroke="rgba(50,50,50,1)" stroke-width="2" fill-opacity="1" fill="#ffffff"></path><g id="SvgjsG1161"><text id="SvgjsText1162" font-family="微软雅黑" text-anchor="middle" font-size="13px" width="78" fill="#323232" font-weight="400" align="middle" anchor="middle" family="微软雅黑" size="13px" weight="400" font-style="" opacity="1" y="11.05" transform="rotate(0)"><tspan id="SvgjsTspan1163" dy="16" x="136.5"><tspan id="SvgjsTspan1164" style="text-decoration:;">使用何种功能</tspan></tspan></text></g></g><g id="SvgjsG1165"><path id="SvgjsPath1166" d="M544.15625 653L544.15625 685.5L630.65625 685.5L630.65625 718" stroke="#323232" stroke-width="2" fill="none" marker-end="url(#SvgjsMarker1167)"></path></g><g id="SvgjsG1169"><path id="SvgjsPath1170" d="M717.15625 653L717.15625 685.5L630.65625 685.5L630.65625 718" stroke="#323232" stroke-width="2" fill="none" marker-end="url(#SvgjsMarker1171)"></path></g><g id="SvgjsG1173" transform="translate(494.15625,800)"><path id="SvgjsPath1174" d="M 0 0L 273 0L 273 53L 0 53Z" stroke="rgba(50,50,50,1)" stroke-width="2" fill-opacity="1" fill="#ffffff"></path><g id="SvgjsG1175"><text id="SvgjsText1176" font-family="微软雅黑" text-anchor="middle" font-size="13px" width="98" fill="#323232" font-weight="400" align="middle" anchor="middle" family="微软雅黑" size="13px" weight="400" font-style="" opacity="1" y="16.55" transform="rotate(0)"><tspan id="SvgjsTspan1177" dy="16" x="136.5"><tspan id="SvgjsTspan1178" style="text-decoration:;">调用对应功能API</tspan></tspan></text></g></g><g id="SvgjsG1179"><path id="SvgjsPath1180" d="M630.65625 760L630.65625 780L630.65625 780L630.65625 800" stroke="#323232" stroke-width="2" fill="none" marker-end="url(#SvgjsMarker1181)"></path></g><g id="SvgjsG1183" transform="translate(494.15625,879)"><path id="SvgjsPath1184" d="M 0 0L 273 0L 273 50L 0 50Z" stroke="rgba(50,50,50,1)" stroke-width="2" fill-opacity="1" fill="#ffffff"></path><g id="SvgjsG1185"><text id="SvgjsText1186" font-family="微软雅黑" text-anchor="middle" font-size="13px" width="104" fill="#323232" font-weight="400" align="middle" anchor="middle" family="微软雅黑" size="13px" weight="400" font-style="" opacity="1" y="15.05" transform="rotate(0)"><tspan id="SvgjsTspan1187" dy="16" x="136.5"><tspan id="SvgjsTspan1188" style="text-decoration:;">返回美化结果图像</tspan></tspan></text></g></g><g id="SvgjsG1189"><path id="SvgjsPath1190" d="M630.65625 853L630.65625 866L630.65625 866L630.65625 879" stroke="#323232" stroke-width="2" fill="none" marker-end="url(#SvgjsMarker1191)"></path></g><g id="SvgjsG1193" transform="translate(494.15625,977)"><path id="SvgjsPath1194" d="M 0 0L 104.91755449389586 0L 104.91755449389586 70L 0 70Z" stroke="rgba(50,50,50,1)" stroke-width="2" fill-opacity="1" fill="#ffffff"></path><g id="SvgjsG1195"><text id="SvgjsText1196" font-family="微软雅黑" text-anchor="middle" font-size="13px" width="52" fill="#323232" font-weight="400" align="middle" anchor="middle" family="微软雅黑" size="13px" weight="400" font-style="" opacity="1" y="25.05" transform="rotate(0)"><tspan id="SvgjsTspan1197" dy="16" x="52.5"><tspan id="SvgjsTspan1198" style="text-decoration:;">复制文字</tspan></tspan></text></g></g><g id="SvgjsG1199" transform="translate(662.2386955061041,977)"><path id="SvgjsPath1200" d="M 0 0L 104.91755449389586 0L 104.91755449389586 70L 0 70Z" stroke="rgba(50,50,50,1)" stroke-width="2" fill-opacity="1" fill="#ffffff"></path><g id="SvgjsG1201"><text id="SvgjsText1202" font-family="微软雅黑" text-anchor="middle" font-size="13px" width="26" fill="#323232" font-weight="400" align="middle" anchor="middle" family="微软雅黑" size="13px" weight="400" font-style="" opacity="1" y="25.05" transform="rotate(0)"><tspan id="SvgjsTspan1203" dy="16" x="52.5"><tspan id="SvgjsTspan1204" style="text-decoration:;">分享</tspan></tspan></text></g></g><g id="SvgjsG1205"><path id="SvgjsPath1206" d="M630.65625 929L630.65625 953L546.6150272469479 953L546.6150272469479 977" stroke="#323232" stroke-width="2" fill="none" marker-end="url(#SvgjsMarker1207)"></path></g><g id="SvgjsG1209"><path id="SvgjsPath1210" d="M630.65625 929L630.65625 953L714.6974727530521 953L714.6974727530521 977" stroke="#323232" stroke-width="2" fill="none" marker-end="url(#SvgjsMarker1211)"></path></g><g id="SvgjsG1213" transform="translate(1001.15625,316.70238095238096)"><path id="SvgjsPath1214" d="M 0 40L 60 0L 120 40L 60 80Z" stroke="rgba(50,50,50,1)" stroke-width="2" fill-opacity="1" fill="#ffffff"></path><g id="SvgjsG1215"><text id="SvgjsText1216" font-family="微软雅黑" text-anchor="middle" font-size="13px" width="26" fill="#323232" font-weight="400" align="middle" anchor="middle" family="微软雅黑" size="13px" weight="400" font-style="" opacity="1" y="30.45" transform="rotate(0)"><tspan id="SvgjsTspan1217" dy="16" x="60"><tspan id="SvgjsTspan1218" style="text-decoration:;">我的</tspan></tspan></text></g></g><g id="SvgjsG1219" transform="translate(844.15625,453.42857142857144)"><path id="SvgjsPath1220" d="M 0 0L 100 0L 100 70L 0 70Z" stroke="rgba(50,50,50,1)" stroke-width="2" fill-opacity="1" fill="#ffffff"></path><g id="SvgjsG1221"><text id="SvgjsText1222" font-family="微软雅黑" text-anchor="middle" font-size="13px" width="52" fill="#323232" font-weight="400" align="middle" anchor="middle" family="微软雅黑" size="13px" weight="400" font-style="" opacity="1" y="25.05" transform="rotate(0)"><tspan id="SvgjsTspan1223" dy="16" x="50"><tspan id="SvgjsTspan1224" style="text-decoration:;">用户资料</tspan></tspan></text></g></g><g id="SvgjsG1225" transform="translate(1011.15625,453.42857142857144)"><path id="SvgjsPath1226" d="M 0 0L 100 0L 100 70L 0 70Z" stroke="rgba(50,50,50,1)" stroke-width="2" fill-opacity="1" fill="#ffffff"></path><g id="SvgjsG1227"><text id="SvgjsText1228" font-family="微软雅黑" text-anchor="middle" font-size="13px" width="52" fill="#323232" font-weight="400" align="middle" anchor="middle" family="微软雅黑" size="13px" weight="400" font-style="" opacity="1" y="25.05" transform="rotate(0)"><tspan id="SvgjsTspan1229" dy="16" x="50"><tspan id="SvgjsTspan1230" style="text-decoration:;">选择功能</tspan></tspan></text></g></g><g id="SvgjsG1231" transform="translate(1169.15625,453.42857142857144)"><path id="SvgjsPath1232" d="M 0 0L 100 0L 100 70L 0 70Z" stroke="rgba(50,50,50,1)" stroke-width="2" fill-opacity="1" fill="#ffffff"></path><g id="SvgjsG1233"><text id="SvgjsText1234" font-family="微软雅黑" text-anchor="middle" font-size="13px" width="26" fill="#323232" font-weight="400" align="middle" anchor="middle" family="微软雅黑" size="13px" weight="400" font-style="" opacity="1" y="25.05" transform="rotate(0)"><tspan id="SvgjsTspan1235" dy="16" x="50"><tspan id="SvgjsTspan1236" style="text-decoration:;">设置</tspan></tspan></text></g></g><g id="SvgjsG1237"><path id="SvgjsPath1238" d="M1061.15625 396.70238095238096L1061.15625 425.0654761904762L1061.15625 425.0654761904762L1061.15625 453.42857142857144" stroke="#323232" stroke-width="2" fill="none" marker-end="url(#SvgjsMarker1239)"></path></g><g id="SvgjsG1241"><path id="SvgjsPath1242" d="M1061.15625 396.70238095238096L1061.15625 425.0654761904762L894.15625 425.0654761904762L894.15625 453.42857142857144" stroke="#323232" stroke-width="2" fill="none" marker-end="url(#SvgjsMarker1243)"></path></g><g id="SvgjsG1245"><path id="SvgjsPath1246" d="M1061.15625 396.70238095238096L1061.15625 425.0654761904762L1219.15625 425.0654761904762L1219.15625 453.42857142857144" stroke="#323232" stroke-width="2" fill="none" marker-end="url(#SvgjsMarker1247)"></path></g><g id="SvgjsG1249" transform="translate(25.01339285714272,718)"><path id="SvgjsPath1250" d="M 0 0L 100 0L 100 70L 0 70Z" stroke="rgba(50,50,50,1)" stroke-width="2" fill-opacity="1" fill="#ffffff"></path><g id="SvgjsG1251"><text id="SvgjsText1252" font-family="微软雅黑" text-anchor="middle" font-size="13px" width="52" fill="#323232" font-weight="400" align="middle" anchor="middle" family="微软雅黑" size="13px" weight="400" font-style="" opacity="1" y="25.05" transform="rotate(0)"><tspan id="SvgjsTspan1253" dy="16" x="50"><tspan id="SvgjsTspan1254" style="text-decoration:;">整理相册</tspan></tspan></text></g></g><g id="SvgjsG1255"><path id="SvgjsPath1256" d="M75.01339285714272 653L75.01339285714272 685.5L75.01339285714272 685.5L75.01339285714272 718" stroke="#323232" stroke-width="2" fill="none" marker-end="url(#SvgjsMarker1257)"></path></g><g id="SvgjsG1259" transform="translate(25.01339285714272,1142)"><path id="SvgjsPath1260" d="M 0 0L 1244.1428571428573 0L 1244.1428571428573 67L 0 67Z" stroke="rgba(50,50,50,1)" stroke-width="2" fill-opacity="1" fill="#ffffff"></path><g id="SvgjsG1261"><text id="SvgjsText1262" font-family="微软雅黑" text-anchor="middle" font-size="47px" width="94" fill="#323232" font-weight="400" align="middle" anchor="middle" family="微软雅黑" size="47px" weight="400" font-style="" opacity="1" y="-3.05" transform="rotate(0)"><tspan id="SvgjsTspan1263" dy="58" x="622.5"><tspan id="SvgjsTspan1264" style="text-decoration:;font-weight: bold;">结束</tspan></tspan></text></g></g><g id="SvgjsG1265"><path id="SvgjsPath1266" d="M75.01339285714272 788L75.01339285714272 1103L647.0848214285713 1103L647.0848214285713 1142" stroke="#323232" stroke-width="2" fill="none" marker-end="url(#SvgjsMarker1267)"></path></g><g id="SvgjsG1269"><path id="SvgjsPath1270" d="M222.15625 962L222.15625 1103L647.0848214285713 1103L647.0848214285713 1142" stroke="#323232" stroke-width="2" fill="none" marker-end="url(#SvgjsMarker1271)"></path></g><g id="SvgjsG1273"><path id="SvgjsPath1274" d="M385.3211410122083 962L385.3211410122083 1103L647.0848214285713 1103L647.0848214285713 1142" stroke="#323232" stroke-width="2" fill="none" marker-end="url(#SvgjsMarker1275)"></path></g><g id="SvgjsG1277"><path id="SvgjsPath1278" d="M546.6150272469479 1047L546.6150272469479 1102.5L647.0848214285713 1102.5L647.0848214285713 1142" stroke="#323232" stroke-width="2" fill="none" marker-end="url(#SvgjsMarker1279)"></path></g><g id="SvgjsG1281"><path id="SvgjsPath1282" d="M714.6974727530521 1047L714.6974727530521 1102.5L647.0848214285713 1102.5L647.0848214285713 1142" stroke="#323232" stroke-width="2" fill="none" marker-end="url(#SvgjsMarker1283)"></path></g><g id="SvgjsG1285"><path id="SvgjsPath1286" d="M894.15625 523.4285714285714L894.15625 1102.7142857142853L647.0848214285713 1102.7142857142853L647.0848214285713 1142" stroke="#323232" stroke-width="2" fill="none" marker-end="url(#SvgjsMarker1287)"></path></g><g id="SvgjsG1289"><path id="SvgjsPath1290" d="M1061.15625 523.4285714285714L1061.15625 1102.7142857142856L647.0848214285713 1102.7142857142856L647.0848214285713 1142" stroke="#323232" stroke-width="2" fill="none" marker-end="url(#SvgjsMarker1291)"></path></g><g id="SvgjsG1293"><path id="SvgjsPath1294" d="M1219.15625 523.4285714285714L1219.15625 1103.8253968253964L647.0848214285713 1103.8253968253964L647.0848214285713 1142" stroke="#323232" stroke-width="2" fill="none" marker-end="url(#SvgjsMarker1295)"></path></g><g id="SvgjsG1297"><path id="SvgjsPath1298" d="M650.65625 83L650.65625 115.98214285714286L650.6351926931477 115.98214285714286L650.6351926931477 148.96428571428572" stroke="#323232" stroke-width="2" fill="none" marker-end="url(#SvgjsMarker1299)"></path></g></svg>