<svg id="kity_svg_6" xmlns="http://www.w3.org/2000/svg" xmlns:xlink="http://www.w3.org/1999/xlink" version="1.1" width="950" height="1124" style="background: rgb(251, 251, 251); visibility: visible;" viewBox="0 0 950 1124"><defs id="kity_defs_7"><linearGradient id="kity_linearGradient_17" x1="0" y1="0" x2="0" y2="1"><stop id="kity_stop_18" offset="0" stop-color="rgb(255, 255, 255)"></stop><stop id="kity_stop_19" offset="1" stop-color="rgb(204, 204, 204)"></stop></linearGradient><marker id="kity_marker_2" orient="auto" refX="6" refY="0" viewBox="-7 -7 14 14" markerWidth="7" markerHeight="7" markerUnits="userSpaceOnUse"><path id="kity_path_3" fill="rgb(115, 161, 191)" stroke="none" d="M6,0A6,6,0,1,1,-6,0A6,6,0,1,1,6,0"></path></marker></defs><g id="kity_g_8"><g id="minder1" text-rendering="optimize-speed"><g id="minder_connect_group1"><path id="kity_path_31" fill="none" stroke="rgb(115, 161, 191)" stroke-width="1" d="M442.5,516.5A244,303,0,0,1,686.5,213.5"></path><path id="kity_path_51" fill="none" stroke="rgb(115, 161, 191)" stroke-width="1" d="M442.5,516.5A187,5,0,0,0,629.5,521.5"></path><path id="kity_path_53" fill="none" stroke="rgb(115, 161, 191)" stroke-width="1" d="M442.5,516.5A246,314,0,0,0,688.5,830.5"></path><path id="kity_path_224" fill="none" stroke="rgb(115, 161, 191)" stroke-width="1" d="M442.5,516.5A124,135,0,0,1,318.5,651.5"></path><path id="kity_path_232" fill="none" stroke="rgb(115, 161, 191)" stroke-width="1" d="M248.5,651.5C233.5,651.5,233.5,457.5,218.5,457.5L164.5,457.5"></path><path id="kity_path_240" fill="none" stroke="rgb(115, 161, 191)" stroke-width="1" d="M248.5,651.5C233.5,651.5,233.5,665.5,218.5,665.5L140.5,665.5"></path><path id="kity_path_242" fill="none" stroke="rgb(115, 161, 191)" stroke-width="1" d="M140.5,665.5C125.5,665.5,125.5,509.5,110.5,509.5L56.5,509.5"></path><path id="kity_path_244" fill="none" stroke="rgb(115, 161, 191)" stroke-width="1" d="M140.5,665.5C125.5,665.5,125.5,561.5,110.5,561.5L20.5,561.5"></path><path id="kity_path_246" fill="none" stroke="rgb(115, 161, 191)" stroke-width="1" d="M140.5,665.5C125.5,665.5,125.5,613.5,110.5,613.5L32.5,613.5"></path><path id="kity_path_248" fill="none" stroke="rgb(115, 161, 191)" stroke-width="1" d="M140.5,665.5C125.5,665.5,125.5,665.5,110.5,665.5L32.5,665.5"></path><path id="kity_path_250" fill="none" stroke="rgb(115, 161, 191)" stroke-width="1" d="M140.5,665.5C125.5,665.5,125.5,717.5,110.5,717.5L32.5,717.5"></path><path id="kity_path_252" fill="none" stroke="rgb(115, 161, 191)" stroke-width="1" d="M140.5,665.5C125.5,665.5,125.5,769.5,110.5,769.5L44.5,769.5"></path><path id="kity_path_254" fill="none" stroke="rgb(115, 161, 191)" stroke-width="1" d="M140.5,665.5C125.5,665.5,125.5,821.5,110.5,821.5L32.5,821.5"></path><path id="kity_path_304" fill="none" stroke="rgb(115, 161, 191)" stroke-width="1" d="M248.5,651.5C233.5,651.5,233.5,873.5,218.5,873.5L164.5,873.5"></path><path id="kity_path_461" fill="none" stroke="rgb(115, 161, 191)" stroke-width="1" d="M840.5,227.5C855.5,227.5,855.5,45.5,870.5,45.5L924.5,45.5"></path><path id="kity_path_462" fill="none" stroke="rgb(115, 161, 191)" stroke-width="1" d="M840.5,227.5C855.5,227.5,855.5,97.5,870.5,97.5L924.5,97.5"></path><path id="kity_path_463" fill="none" stroke="rgb(115, 161, 191)" stroke-width="1" d="M840.5,227.5C855.5,227.5,855.5,149.5,870.5,149.5L924.5,149.5"></path><path id="kity_path_464" fill="none" stroke="rgb(115, 161, 191)" stroke-width="1" d="M840.5,227.5C855.5,227.5,855.5,201.5,870.5,201.5L924.5,201.5"></path><path id="kity_path_465" fill="none" stroke="rgb(115, 161, 191)" stroke-width="1" d="M840.5,227.5C855.5,227.5,855.5,253.5,870.5,253.5L924.5,253.5"></path><path id="kity_path_466" fill="none" stroke="rgb(115, 161, 191)" stroke-width="1" d="M840.5,227.5C855.5,227.5,855.5,305.5,870.5,305.5L924.5,305.5"></path><path id="kity_path_467" fill="none" stroke="rgb(115, 161, 191)" stroke-width="1" d="M840.5,227.5C855.5,227.5,855.5,357.5,870.5,357.5L924.5,357.5"></path><path id="kity_path_468" fill="none" stroke="rgb(115, 161, 191)" stroke-width="1" d="M840.5,227.5C855.5,227.5,855.5,409.5,870.5,409.5L924.5,409.5"></path><path id="kity_path_469" fill="none" stroke="rgb(115, 161, 191)" stroke-width="1" d="M756.5,213.5C771.5,213.5,771.5,227.5,786.5,227.5L840.5,227.5"></path><path id="kity_path_481" fill="none" stroke="rgb(115, 161, 191)" stroke-width="1" d="M786.5,830.5C801.5,830.5,801.5,584.5,816.5,584.5L894.5,584.5"></path><path id="kity_path_482" fill="none" stroke="rgb(115, 161, 191)" stroke-width="1" d="M786.5,830.5C801.5,830.5,801.5,636.5,816.5,636.5L930.5,636.5"></path><path id="kity_path_483" fill="none" stroke="rgb(115, 161, 191)" stroke-width="1" d="M786.5,830.5C801.5,830.5,801.5,688.5,816.5,688.5L918.5,688.5"></path><path id="kity_path_484" fill="none" stroke="rgb(115, 161, 191)" stroke-width="1" d="M786.5,830.5C801.5,830.5,801.5,740.5,816.5,740.5L918.5,740.5"></path><path id="kity_path_485" fill="none" stroke="rgb(115, 161, 191)" stroke-width="1" d="M786.5,830.5C801.5,830.5,801.5,792.5,816.5,792.5L918.5,792.5"></path><path id="kity_path_486" fill="none" stroke="rgb(115, 161, 191)" stroke-width="1" d="M786.5,830.5C801.5,830.5,801.5,844.5,816.5,844.5L918.5,844.5"></path><path id="kity_path_487" fill="none" stroke="rgb(115, 161, 191)" stroke-width="1" d="M786.5,830.5C801.5,830.5,801.5,896.5,816.5,896.5L906.5,896.5"></path><path id="kity_path_488" fill="none" stroke="rgb(115, 161, 191)" stroke-width="1" d="M786.5,830.5C801.5,830.5,801.5,948.5,816.5,948.5L930.5,948.5"></path><path id="kity_path_489" fill="none" stroke="rgb(115, 161, 191)" stroke-width="1" d="M786.5,830.5C801.5,830.5,801.5,1000.5,816.5,1000.5L894.5,1000.5"></path><path id="kity_path_490" fill="none" stroke="rgb(115, 161, 191)" stroke-width="1" d="M786.5,830.5C801.5,830.5,801.5,1052.5,816.5,1052.5L894.5,1052.5"></path><path id="kity_path_491" fill="none" stroke="rgb(115, 161, 191)" stroke-width="1" d="M786.5,830.5C801.5,830.5,801.5,1104.5,816.5,1104.5L918.5,1104.5"></path></g><g id="minder_node1"><path id="node_outline1" fill="rgb(115, 161, 191)" stroke="rgb(115, 161, 191)" d="M407.5,496.5h70a5,5,0,0,1,5,5v30a5,5,0,0,1,-5,5h-70a5,5,0,0,1,-5,-5v-30a5,5,0,0,1,5,-5z" stroke-width="3"></path><g id="node_text1" fill="white"><text id="kity_text_22" text-rendering="inherit" font-size="16" dy=".8em" y="508.5" font-weight="bold" x="426.5">识相</text></g></g><g id="kity_g_12" display="none"><path id="kity_path_13" fill="none" stroke="none" d="M426.5,516.5h0v0h0z"></path></g><g id="kity_g_14" display="none"><path id="kity_path_15" fill="none" stroke="none" d="M426.5,516.5h0v0h0z"></path><path id="kity_path_16" fill="none" stroke="none"></path></g><g id="minder_node2" opacity="1"><g id="node_expander10" style="cursor: pointer;"><path id="kity_path_173" fill="white" stroke="gray" d="M687.5,213.5A6,6,0,1,1,675.5,213.5A6,6,0,1,1,687.5,213.5"></path><path id="kity_path_174" fill="none" stroke="gray" d="M677,213.5L686,213.5"></path></g><path id="node_outline11" fill="rgb(238, 243, 246)" stroke="rgb(115, 161, 191)" d="M691.5,200.5h62a3,3,0,0,1,3,3v20a3,3,0,0,1,-3,3h-62a3,3,0,0,1,-3,-3v-20a3,3,0,0,1,3,-3z" stroke-width="1"></path><g id="node_text11" fill="black"><text id="kity_text_95" text-rendering="inherit" font-size="14" dy=".8em" font-weight="bold" y="206.5" x="708.5">照片</text></g></g><g id="minder_node12" opacity="1"><g id="node_expander11" style="cursor: pointer;" display="none"><path id="kity_path_176" fill="white" stroke="gray" d="M630.5,521.5A6,6,0,1,1,618.5,521.5A6,6,0,1,1,630.5,521.5"></path><path id="kity_path_177" fill="none" stroke="gray"></path></g><path id="node_outline12" fill="rgb(238, 243, 246)" stroke="rgb(115, 161, 191)" d="M634.5,508.5h90a3,3,0,0,1,3,3v20a3,3,0,0,1,-3,3h-90a3,3,0,0,1,-3,-3v-20a3,3,0,0,1,3,-3z" stroke-width="1"></path><g id="node_text12" fill="black"><text id="kity_text_97" text-rendering="inherit" font-size="14" dy=".8em" font-weight="bold" y="514.5" x="651.5">文档扫描</text></g></g><g id="minder_node13" opacity="1"><g id="node_expander12" style="cursor: pointer;"><path id="kity_path_179" fill="white" stroke="gray" d="M799.5,830.5A6,6,0,1,1,787.5,830.5A6,6,0,1,1,799.5,830.5"></path><path id="kity_path_180" fill="none" stroke="gray" d="M789,830.5L798,830.5"></path></g><path id="node_outline13" fill="rgb(238, 243, 246)" stroke="rgb(115, 161, 191)" d="M693.5,817.5h90a3,3,0,0,1,3,3v20a3,3,0,0,1,-3,3h-90a3,3,0,0,1,-3,-3v-20a3,3,0,0,1,3,-3z" stroke-width="1"></path><g id="node_text13" fill="black"><text id="kity_text_99" text-rendering="inherit" font-size="14" dy=".8em" font-weight="bold" y="823.5" x="710.5">照片美化</text></g></g><g id="minder_node25"><g id="node_expander24" style="cursor: pointer;"><path id="kity_path_229" fill="white" stroke="gray" d="M329.5,651.5A6,6,0,1,1,317.5,651.5A6,6,0,1,1,329.5,651.5"></path><path id="kity_path_230" fill="none" stroke="gray" d="M319,651.5L328,651.5"></path></g><path id="node_outline25" fill="rgb(238, 243, 246)" stroke="rgb(115, 161, 191)" d="M251.5,638.5h62a3,3,0,0,1,3,3v20a3,3,0,0,1,-3,3h-62a3,3,0,0,1,-3,-3v-20a3,3,0,0,1,3,-3z" stroke-width="1"></path><g id="node_text25" fill="black"><text id="kity_text_226" text-rendering="inherit" font-size="14" dy=".8em" y="644.5" font-weight="bold" x="268.5">我的</text></g></g><g id="minder_node26"><g id="node_expander25" style="cursor: pointer;" display="none"><path id="kity_path_237" fill="white" stroke="gray" d="M220.5,443.5A6,6,0,1,1,208.5,443.5A6,6,0,1,1,220.5,443.5"></path><path id="kity_path_238" fill="none" stroke="gray"></path></g><path id="node_outline26" fill="none" stroke="none" d="M169.5,432.5h34a5,5,0,0,1,5,5v12a5,5,0,0,1,-5,5h-34a5,5,0,0,1,-5,-5v-12a5,5,0,0,1,5,-5z" stroke-width="3"></path><g id="node_text26" fill="black"><text id="kity_text_234" text-rendering="inherit" font-size="12" dy=".8em" y="437.5" x="174.5">用户</text></g></g><g id="minder_node27"><g id="node_expander33" style="cursor: pointer;"><path id="kity_path_301" fill="white" stroke="gray" d="M220.5,651.5A6,6,0,1,1,208.5,651.5A6,6,0,1,1,220.5,651.5"></path><path id="kity_path_302" fill="none" stroke="gray" d="M210,651.5L219,651.5"></path></g><path id="node_outline34" fill="none" stroke="none" d="M145.5,640.5h58a5,5,0,0,1,5,5v12a5,5,0,0,1,-5,5h-58a5,5,0,0,1,-5,-5v-12a5,5,0,0,1,5,-5z" stroke-width="3"></path><g id="node_text34" fill="black"><text id="kity_text_270" text-rendering="inherit" font-size="12" dy=".8em" y="645.5" x="150.5">功能合集</text></g></g><g id="minder_node28"><g id="node_expander26" style="cursor: pointer;" display="none"><path id="kity_path_280" fill="white" stroke="gray" d="M112.5,495.5A6,6,0,1,1,100.5,495.5A6,6,0,1,1,112.5,495.5"></path><path id="kity_path_281" fill="none" stroke="gray"></path></g><path id="node_outline27" fill="none" stroke="none" d="M61.5,484.5h34a5,5,0,0,1,5,5v12a5,5,0,0,1,-5,5h-34a5,5,0,0,1,-5,-5v-12a5,5,0,0,1,5,-5z"></path><g id="node_text27" fill="black"><text id="kity_text_256" text-rendering="inherit" font-size="12" dy=".8em" y="489.5" x="66.5">备份</text></g></g><g id="minder_node29"><g id="node_expander27" style="cursor: pointer;" display="none"><path id="kity_path_283" fill="white" stroke="gray" d="M112.5,547.5A6,6,0,1,1,100.5,547.5A6,6,0,1,1,112.5,547.5"></path><path id="kity_path_284" fill="none" stroke="gray"></path></g><path id="node_outline28" fill="none" stroke="none" d="M25.5,536.5h70a5,5,0,0,1,5,5v12a5,5,0,0,1,-5,5h-70a5,5,0,0,1,-5,-5v-12a5,5,0,0,1,5,-5z"></path><g id="node_text28" fill="black"><text id="kity_text_258" text-rendering="inherit" font-size="12" dy=".8em" y="541.5" x="30.5">面对面快传</text></g></g><g id="minder_node30"><g id="node_expander28" style="cursor: pointer;" display="none"><path id="kity_path_286" fill="white" stroke="gray" d="M112.5,599.5A6,6,0,1,1,100.5,599.5A6,6,0,1,1,112.5,599.5"></path><path id="kity_path_287" fill="none" stroke="gray"></path></g><path id="node_outline29" fill="none" stroke="none" d="M37.5,588.5h58a5,5,0,0,1,5,5v12a5,5,0,0,1,-5,5h-58a5,5,0,0,1,-5,-5v-12a5,5,0,0,1,5,-5z"></path><g id="node_text29" fill="black"><text id="kity_text_260" text-rendering="inherit" font-size="12" dy=".8em" y="593.5" x="42.5">文档扫描</text></g></g><g id="minder_node31"><g id="node_expander29" style="cursor: pointer;" display="none"><path id="kity_path_289" fill="white" stroke="gray" d="M112.5,651.5A6,6,0,1,1,100.5,651.5A6,6,0,1,1,112.5,651.5"></path><path id="kity_path_290" fill="none" stroke="gray"></path></g><path id="node_outline30" fill="none" stroke="none" d="M37.5,640.5h58a5,5,0,0,1,5,5v12a5,5,0,0,1,-5,5h-58a5,5,0,0,1,-5,-5v-12a5,5,0,0,1,5,-5z"></path><g id="node_text30" fill="black"><text id="kity_text_262" text-rendering="inherit" font-size="12" dy=".8em" y="645.5" x="42.5">照片美化</text></g></g><g id="minder_node32"><g id="node_expander30" style="cursor: pointer;" display="none"><path id="kity_path_292" fill="white" stroke="gray" d="M112.5,703.5A6,6,0,1,1,100.5,703.5A6,6,0,1,1,112.5,703.5"></path><path id="kity_path_293" fill="none" stroke="gray"></path></g><path id="node_outline31" fill="none" stroke="none" d="M37.5,692.5h58a5,5,0,0,1,5,5v12a5,5,0,0,1,-5,5h-58a5,5,0,0,1,-5,-5v-12a5,5,0,0,1,5,-5z"></path><g id="node_text31" fill="black"><text id="kity_text_264" text-rendering="inherit" font-size="12" dy=".8em" y="697.5" x="42.5">私密空间</text></g></g><g id="minder_node33"><g id="node_expander31" style="cursor: pointer;" display="none"><path id="kity_path_295" fill="white" stroke="gray" d="M112.5,755.5A6,6,0,1,1,100.5,755.5A6,6,0,1,1,112.5,755.5"></path><path id="kity_path_296" fill="none" stroke="gray"></path></g><path id="node_outline32" fill="none" stroke="none" d="M49.5,744.5h46a5,5,0,0,1,5,5v12a5,5,0,0,1,-5,5h-46a5,5,0,0,1,-5,-5v-12a5,5,0,0,1,5,-5z"></path><g id="node_text32" fill="black"><text id="kity_text_266" text-rendering="inherit" font-size="12" dy=".8em" y="749.5" x="54.5">回收站</text></g></g><g id="minder_node34"><g id="node_expander32" style="cursor: pointer;" display="none"><path id="kity_path_298" fill="white" stroke="gray" d="M112.5,807.5A6,6,0,1,1,100.5,807.5A6,6,0,1,1,112.5,807.5"></path><path id="kity_path_299" fill="none" stroke="gray"></path></g><path id="node_outline33" fill="none" stroke="none" d="M37.5,796.5h58a5,5,0,0,1,5,5v12a5,5,0,0,1,-5,5h-58a5,5,0,0,1,-5,-5v-12a5,5,0,0,1,5,-5z"></path><g id="node_text33" fill="black"><text id="kity_text_268" text-rendering="inherit" font-size="12" dy=".8em" y="801.5" x="42.5">照片回忆</text></g></g><g id="minder_node35"><g id="node_expander34" style="cursor: pointer;" display="none"><path id="kity_path_309" fill="white" stroke="gray" d="M220.5,859.5A6,6,0,1,1,208.5,859.5A6,6,0,1,1,220.5,859.5"></path><path id="kity_path_310" fill="none" stroke="gray"></path></g><path id="node_outline35" fill="none" stroke="none" d="M169.5,848.5h34a5,5,0,0,1,5,5v12a5,5,0,0,1,-5,5h-34a5,5,0,0,1,-5,-5v-12a5,5,0,0,1,5,-5z" stroke-width="3"></path><g id="node_text35" fill="black"><text id="kity_text_306" text-rendering="inherit" font-size="12" dy=".8em" y="853.5" x="174.5">设置</text></g></g><g id="minder_node4"><g id="node_expander1" style="cursor: pointer;" display="none"><path id="kity_path_146" fill="white" stroke="gray" d="M880.5,31.5A6,6,0,1,1,868.5,31.5A6,6,0,1,1,880.5,31.5"></path><path id="kity_path_147" fill="none" stroke="gray"></path></g><path id="node_outline2" fill="none" stroke="none" d="M885.5,20.5h34a5,5,0,0,1,5,5v12a5,5,0,0,1,-5,5h-34a5,5,0,0,1,-5,-5v-12a5,5,0,0,1,5,-5z"></path><g id="node_text2" fill="black"><text id="kity_text_77" text-rendering="inherit" font-size="12" dy=".8em" y="25.5" x="890.5">人物</text></g></g><g id="minder_node5"><g id="node_expander2" style="cursor: pointer;" display="none"><path id="kity_path_149" fill="white" stroke="gray" d="M880.5,83.5A6,6,0,1,1,868.5,83.5A6,6,0,1,1,880.5,83.5"></path><path id="kity_path_150" fill="none" stroke="gray"></path></g><path id="node_outline3" fill="none" stroke="none" d="M885.5,72.5h34a5,5,0,0,1,5,5v12a5,5,0,0,1,-5,5h-34a5,5,0,0,1,-5,-5v-12a5,5,0,0,1,5,-5z"></path><g id="node_text3" fill="black"><text id="kity_text_79" text-rendering="inherit" font-size="12" dy=".8em" y="77.5" x="890.5">事物</text></g></g><g id="minder_node6"><g id="node_expander3" style="cursor: pointer;" display="none"><path id="kity_path_152" fill="white" stroke="gray" d="M880.5,135.5A6,6,0,1,1,868.5,135.5A6,6,0,1,1,880.5,135.5"></path><path id="kity_path_153" fill="none" stroke="gray"></path></g><path id="node_outline4" fill="none" stroke="none" d="M885.5,124.5h34a5,5,0,0,1,5,5v12a5,5,0,0,1,-5,5h-34a5,5,0,0,1,-5,-5v-12a5,5,0,0,1,5,-5z"></path><g id="node_text4" fill="black"><text id="kity_text_81" text-rendering="inherit" font-size="12" dy=".8em" y="129.5" x="890.5">地点</text></g></g><g id="minder_node7"><g id="node_expander4" style="cursor: pointer;" display="none"><path id="kity_path_155" fill="white" stroke="gray" d="M880.5,187.5A6,6,0,1,1,868.5,187.5A6,6,0,1,1,880.5,187.5"></path><path id="kity_path_156" fill="none" stroke="gray"></path></g><path id="node_outline5" fill="none" stroke="none" d="M885.5,176.5h34a5,5,0,0,1,5,5v12a5,5,0,0,1,-5,5h-34a5,5,0,0,1,-5,-5v-12a5,5,0,0,1,5,-5z"></path><g id="node_text5" fill="black"><text id="kity_text_83" text-rendering="inherit" font-size="12" dy=".8em" y="181.5" x="890.5">证件</text></g></g><g id="minder_node8"><g id="node_expander5" style="cursor: pointer;" display="none"><path id="kity_path_158" fill="white" stroke="gray" d="M880.5,239.5A6,6,0,1,1,868.5,239.5A6,6,0,1,1,880.5,239.5"></path><path id="kity_path_159" fill="none" stroke="gray"></path></g><path id="node_outline6" fill="none" stroke="none" d="M885.5,228.5h34a5,5,0,0,1,5,5v12a5,5,0,0,1,-5,5h-34a5,5,0,0,1,-5,-5v-12a5,5,0,0,1,5,-5z"></path><g id="node_text6" fill="black"><text id="kity_text_85" text-rendering="inherit" font-size="12" dy=".8em" y="233.5" x="890.5">文档</text></g></g><g id="minder_node9"><g id="node_expander6" style="cursor: pointer;" display="none"><path id="kity_path_161" fill="white" stroke="gray" d="M880.5,291.5A6,6,0,1,1,868.5,291.5A6,6,0,1,1,880.5,291.5"></path><path id="kity_path_162" fill="none" stroke="gray"></path></g><path id="node_outline7" fill="none" stroke="none" d="M885.5,280.5h34a5,5,0,0,1,5,5v12a5,5,0,0,1,-5,5h-34a5,5,0,0,1,-5,-5v-12a5,5,0,0,1,5,-5z"></path><g id="node_text7" fill="black"><text id="kity_text_87" text-rendering="inherit" font-size="12" dy=".8em" y="285.5" x="890.5">截图</text></g></g><g id="minder_node10"><g id="node_expander7" style="cursor: pointer;" display="none"><path id="kity_path_164" fill="white" stroke="gray" d="M880.5,343.5A6,6,0,1,1,868.5,343.5A6,6,0,1,1,880.5,343.5"></path><path id="kity_path_165" fill="none" stroke="gray"></path></g><path id="node_outline8" fill="none" stroke="none" d="M885.5,332.5h34a5,5,0,0,1,5,5v12a5,5,0,0,1,-5,5h-34a5,5,0,0,1,-5,-5v-12a5,5,0,0,1,5,-5z"></path><g id="node_text8" fill="black"><text id="kity_text_89" text-rendering="inherit" font-size="12" dy=".8em" y="337.5" x="890.5">动图</text></g></g><g id="minder_node11"><g id="node_expander8" style="cursor: pointer;" display="none"><path id="kity_path_167" fill="white" stroke="gray" d="M880.5,395.5A6,6,0,1,1,868.5,395.5A6,6,0,1,1,880.5,395.5"></path><path id="kity_path_168" fill="none" stroke="gray"></path></g><path id="node_outline9" fill="none" stroke="none" d="M885.5,384.5h34a5,5,0,0,1,5,5v12a5,5,0,0,1,-5,5h-34a5,5,0,0,1,-5,-5v-12a5,5,0,0,1,5,-5z"></path><g id="node_text9" fill="black"><text id="kity_text_91" text-rendering="inherit" font-size="12" dy=".8em" y="389.5" x="890.5">视频</text></g></g><g id="minder_node3"><g id="node_expander9" style="cursor: pointer;"><path id="kity_path_170" fill="white" stroke="gray" d="M796.5,213.5A6,6,0,1,1,784.5,213.5A6,6,0,1,1,796.5,213.5"></path><path id="kity_path_171" fill="none" stroke="gray" d="M786,213.5L795,213.5"></path></g><path id="node_outline10" fill="none" stroke="none" d="M801.5,202.5h34a5,5,0,0,1,5,5v12a5,5,0,0,1,-5,5h-34a5,5,0,0,1,-5,-5v-12a5,5,0,0,1,5,-5z"></path><g id="node_text10" fill="black"><text id="kity_text_93" text-rendering="inherit" font-size="12" dy=".8em" y="207.5" x="806.5">分类</text></g></g><g id="minder_node36"><g id="node_expander35" style="cursor: pointer;" display="none"><path id="kity_path_317" fill="white" stroke="gray" d="M826.5,570.5A6,6,0,1,1,814.5,570.5A6,6,0,1,1,826.5,570.5"></path><path id="kity_path_318" fill="none" stroke="gray"></path></g><path id="node_outline36" fill="none" stroke="none" d="M831.5,559.5h58a5,5,0,0,1,5,5v12a5,5,0,0,1,-5,5h-58a5,5,0,0,1,-5,-5v-12a5,5,0,0,1,5,-5z" stroke-width="3"></path><g id="node_text36" fill="black"><text id="kity_text_314" text-rendering="inherit" font-size="12" dy=".8em" y="564.5" x="836.5">图像去雾</text></g></g><g id="minder_node37"><g id="node_expander36" style="cursor: pointer;" display="none"><path id="kity_path_325" fill="white" stroke="gray" d="M826.5,622.5A6,6,0,1,1,814.5,622.5A6,6,0,1,1,826.5,622.5"></path><path id="kity_path_326" fill="none" stroke="gray"></path></g><path id="node_outline37" fill="none" stroke="none" d="M831.5,611.5h94a5,5,0,0,1,5,5v12a5,5,0,0,1,-5,5h-94a5,5,0,0,1,-5,-5v-12a5,5,0,0,1,5,-5z" stroke-width="3"></path><g id="node_text37" fill="black"><text id="kity_text_322" text-rendering="inherit" font-size="12" dy=".8em" y="616.5" x="836.5">图像增强对比度</text></g></g><g id="minder_node38"><g id="node_expander37" style="cursor: pointer;" display="none"><path id="kity_path_333" fill="white" stroke="gray" d="M826.5,674.5A6,6,0,1,1,814.5,674.5A6,6,0,1,1,826.5,674.5"></path><path id="kity_path_334" fill="none" stroke="gray"></path></g><path id="node_outline38" fill="none" stroke="none" d="M831.5,663.5h82a5,5,0,0,1,5,5v12a5,5,0,0,1,-5,5h-82a5,5,0,0,1,-5,-5v-12a5,5,0,0,1,5,-5z" stroke-width="3"></path><g id="node_text38" fill="black"><text id="kity_text_330" text-rendering="inherit" font-size="12" dy=".8em" y="668.5" x="836.5">图像无损放大</text></g></g><g id="minder_node39"><g id="node_expander38" style="cursor: pointer;" display="none"><path id="kity_path_341" fill="white" stroke="gray" d="M826.5,726.5A6,6,0,1,1,814.5,726.5A6,6,0,1,1,826.5,726.5"></path><path id="kity_path_342" fill="none" stroke="gray"></path></g><path id="node_outline39" fill="none" stroke="none" d="M831.5,715.5h82a5,5,0,0,1,5,5v12a5,5,0,0,1,-5,5h-82a5,5,0,0,1,-5,-5v-12a5,5,0,0,1,5,-5z" stroke-width="3"></path><g id="node_text39" fill="black"><text id="kity_text_338" text-rendering="inherit" font-size="12" dy=".8em" y="720.5" x="836.5">黑白图像上色</text></g></g><g id="minder_node40"><g id="node_expander39" style="cursor: pointer;" display="none"><path id="kity_path_349" fill="white" stroke="gray" d="M826.5,778.5A6,6,0,1,1,814.5,778.5A6,6,0,1,1,826.5,778.5"></path><path id="kity_path_350" fill="none" stroke="gray"></path></g><path id="node_outline40" fill="none" stroke="none" d="M831.5,767.5h82a5,5,0,0,1,5,5v12a5,5,0,0,1,-5,5h-82a5,5,0,0,1,-5,-5v-12a5,5,0,0,1,5,-5z" stroke-width="3"></path><g id="node_text40" fill="black"><text id="kity_text_346" text-rendering="inherit" font-size="12" dy=".8em" y="772.5" x="836.5">拉伸图像恢复</text></g></g><g id="minder_node41"><g id="node_expander40" style="cursor: pointer;" display="none"><path id="kity_path_357" fill="white" stroke="gray" d="M826.5,830.5A6,6,0,1,1,814.5,830.5A6,6,0,1,1,826.5,830.5"></path><path id="kity_path_358" fill="none" stroke="gray"></path></g><path id="node_outline41" fill="none" stroke="none" d="M831.5,819.5h82a5,5,0,0,1,5,5v12a5,5,0,0,1,-5,5h-82a5,5,0,0,1,-5,-5v-12a5,5,0,0,1,5,-5z" stroke-width="3"></path><g id="node_text41" fill="black"><text id="kity_text_354" text-rendering="inherit" font-size="12" dy=".8em" y="824.5" x="836.5">图像风格转换</text></g></g><g id="minder_node42"><g id="node_expander41" style="cursor: pointer;" display="none"><path id="kity_path_365" fill="white" stroke="gray" d="M826.5,882.5A6,6,0,1,1,814.5,882.5A6,6,0,1,1,826.5,882.5"></path><path id="kity_path_366" fill="none" stroke="gray"></path></g><path id="node_outline42" fill="none" stroke="none" d="M831.5,871.5h70a5,5,0,0,1,5,5v12a5,5,0,0,1,-5,5h-70a5,5,0,0,1,-5,-5v-12a5,5,0,0,1,5,-5z" stroke-width="3"></path><g id="node_text42" fill="black"><text id="kity_text_362" text-rendering="inherit" font-size="12" dy=".8em" y="876.5" x="836.5">人像动漫化</text></g></g><g id="minder_node43"><g id="node_expander42" style="cursor: pointer;" display="none"><path id="kity_path_373" fill="white" stroke="gray" d="M826.5,934.5A6,6,0,1,1,814.5,934.5A6,6,0,1,1,826.5,934.5"></path><path id="kity_path_374" fill="none" stroke="gray"></path></g><path id="node_outline43" fill="none" stroke="none" d="M831.5,923.5h94a5,5,0,0,1,5,5v12a5,5,0,0,1,-5,5h-94a5,5,0,0,1,-5,-5v-12a5,5,0,0,1,5,-5z" stroke-width="3"></path><g id="node_text43" fill="black"><text id="kity_text_370" text-rendering="inherit" font-size="12" dy=".8em" y="928.5" x="836.5">图像清晰度增强</text></g></g><g id="minder_node44"><g id="node_expander43" style="cursor: pointer;" display="none"><path id="kity_path_381" fill="white" stroke="gray" d="M826.5,986.5A6,6,0,1,1,814.5,986.5A6,6,0,1,1,826.5,986.5"></path><path id="kity_path_382" fill="none" stroke="gray"></path></g><path id="node_outline44" fill="none" stroke="none" d="M831.5,975.5h58a5,5,0,0,1,5,5v12a5,5,0,0,1,-5,5h-58a5,5,0,0,1,-5,-5v-12a5,5,0,0,1,5,-5z" stroke-width="3"></path><g id="node_text44" fill="black"><text id="kity_text_378" text-rendering="inherit" font-size="12" dy=".8em" y="980.5" x="836.5">图像修复</text></g></g><g id="minder_node45"><g id="node_expander44" style="cursor: pointer;" display="none"><path id="kity_path_389" fill="white" stroke="gray" d="M826.5,1038.5A6,6,0,1,1,814.5,1038.5A6,6,0,1,1,826.5,1038.5"></path><path id="kity_path_390" fill="none" stroke="gray"></path></g><path id="node_outline45" fill="none" stroke="none" d="M831.5,1027.5h58a5,5,0,0,1,5,5v12a5,5,0,0,1,-5,5h-58a5,5,0,0,1,-5,-5v-12a5,5,0,0,1,5,-5z" stroke-width="3"></path><g id="node_text45" fill="black"><text id="kity_text_386" text-rendering="inherit" font-size="12" dy=".8em" y="1032.5" x="836.5">天空分割</text></g></g><g id="minder_node46"><g id="node_expander45" style="cursor: pointer;" display="none"><path id="kity_path_397" fill="white" stroke="gray" d="M826.5,1090.5A6,6,0,1,1,814.5,1090.5A6,6,0,1,1,826.5,1090.5"></path><path id="kity_path_398" fill="none" stroke="gray"></path></g><path id="node_outline46" fill="none" stroke="none" d="M831.5,1079.5h82a5,5,0,0,1,5,5v12a5,5,0,0,1,-5,5h-82a5,5,0,0,1,-5,-5v-12a5,5,0,0,1,5,-5z" stroke-width="3"></path><g id="node_text46" fill="black"><text id="kity_text_394" text-rendering="inherit" font-size="12" dy=".8em" y="1084.5" x="836.5">图像色彩增强</text></g></g></g></g></svg>